# xmcd
#
# Track frame offsets: 
#        200
#        14570
#        27035
#
# Disc length: 503 seconds
#
# Revision: 1
# Processed by: cddbd v1.5.1PL0 Copyright (c) Steve Scherf et al.
# Submitted via: ExactAudioCopy v0.95a3
#
DISCID=1901f503
DTITLE=J. J. Cale - Lonesome Train
DYEAR=1992
DGENRE=Blues
TTITLE0=Lonesome Train
TTITLE1=Low Rider
TTITLE2=Passion
EXTD=
EXTT0=
EXTT1=
EXTT2=
PLAYORDER=
